<?xml version="1.0" encoding="UTF-8" standalone="no"?>
<!-- Created with Inkscape (http://www.inkscape.org/) -->

<svg
   width="100pt"
   height="80pt"
   viewBox="0 0 35.277777 28.222222"
   version="1.1"
   id="svg2116"
   inkscape:version="1.2.2 (b0a8486541, 2022-12-01)"
   sodipodi:docname="logo-dancers.svg"
   xmlns:inkscape="http://www.inkscape.org/namespaces/inkscape"
   xmlns:sodipodi="http://sodipodi.sourceforge.net/DTD/sodipodi-0.dtd"
   xmlns="http://www.w3.org/2000/svg"
   xmlns:svg="http://www.w3.org/2000/svg">
  <sodipodi:namedview
     id="namedview2118"
     pagecolor="#ffffff"
     bordercolor="#000000"
     borderopacity="0.25"
     inkscape:showpageshadow="2"
     inkscape:pageopacity="0.0"
     inkscape:pagecheckerboard="0"
     inkscape:deskcolor="#d1d1d1"
     inkscape:document-units="mm"
     showgrid="false"
     inkscape:zoom="5.6312263"
     inkscape:cx="89.589722"
     inkscape:cy="78.135734"
     inkscape:window-width="3440"
     inkscape:window-height="1421"
     inkscape:window-x="0"
     inkscape:window-y="0"
     inkscape:window-maximized="1"
     inkscape:current-layer="layer1" />
  <defs
     id="defs2113" />
  <g
     inkscape:label="Layer 1"
     inkscape:groupmode="layer"
     id="layer1">
    <path
       id="Selection"
       fill="none"
       stroke="#000000"
       stroke-width="1"
       d="M 27.844584,5.0736322 C 27.625419,4.0321637 27.54613,4.2584541 27.610275,3.0245497 c 0.02852,-0.536325 -0.339435,-1.099377 -0.125617,-1.461085 0.195108,-0.3323083 0.56038,-0.3795261 0.894471,-0.4623802 0.310034,-0.076622 0.559486,-0.16838077 0.890903,-0.1006723 0.415163,0.083743 1.494941,0.9648507 1.769337,1.309631 0.157693,0.1977808 0.474853,0.4784155 0.509599,0.7180694 0.05613,0.3946712 -0.824085,1.3149768 -1.120761,1.6000669 0.279745,0.1202716 0.726091,0.2877622 0.890017,0.5532517 l 0.250344,0.8721973 0.299345,0.6236335 c 0.383089,1.0762142 0.269052,1.9083197 -0.138981,2.9399883 -0.113145,0.286872 -0.353692,1.2160847 -0.543454,1.3568487 -0.116708,0.0882 -0.148779,0.05257 -0.222727,0.06859 -0.249452,0.909614 -0.04633,0.593344 0.2352,1.425449 l 0.190654,0.712724 0.715399,1.336358 1.113631,1.42545 c 0.570178,0.87576 0.658379,1.325667 1.108285,2.227264 0.192435,0.383979 0.537216,0.987123 0.438325,1.425447 -0.100668,0.446345 -1.248158,1.213415 -1.66332,1.361304 -0.174617,0.06148 -0.352798,0.0597 -0.534543,0.06414 v -0.356363 c -0.515832,0.167491 -0.965741,0.285982 -1.514538,0.263708 -0.806269,-0.03207 -1.029888,-0.37329 -1.60363,-0.326072 l -0.979996,0.06236 c 0.291326,0.600472 0.354579,1.298942 0.35636,1.959993 l 0.623636,-0.267271 c 0.264598,0.768851 0.150562,0.533652 0.801815,0.897142 l 0.534544,0.350126 c -0.257474,0.814287 -0.761725,1.208958 -0.954161,1.566211 l -0.155907,0.397344 -0.375963,0.709162 c 0,0 -0.148373,0.75249 -0.427543,0.808459 -0.227257,0.04556 -1.128976,0.140735 -1.419754,0.124987 -0.290775,-0.01575 -0.928826,-0.683708 -1.477563,-1.111628 -0.108692,0.29489 -0.434763,0.990687 -0.741235,1.099378 -0.212037,0.07484 -1.061959,-0.140763 -1.307848,-0.209363 -1.210742,-0.33587 -2.542645,-1.001376 -3.56362,-1.730137 -0.60671,-0.432979 -1.526125,-1.138577 -2.033939,-1.66243 l -1.041469,-1.313194 -0.666396,-0.63967 c -0.376853,-0.368834 -1.469994,-1.404067 -1.959993,-1.525231 -0.37329,-0.09265 -0.743016,0.399127 -0.979996,0.635216 -0.529199,0.526526 -1.640157,1.527013 -2.227264,1.968901 -0.814288,0.612945 -0.907832,0.505145 -1.7818111,0.792907 -0.9969227,0.327854 -1.5056303,0.541671 -2.5836266,0.534543 -0.6156159,-0.0045 -1.1795583,-0.01074 -1.7818111,0.16749 L 4.6560944,24.457939 C 4.2872599,24.563956 3.8542798,24.604046 3.5754267,24.907845 3.3509178,25.154627 3.0587013,26.107004 2.9883195,26.455348 3.4141723,26.62462 3.5353351,26.707474 3.611953,27.168073 3.1041375,27.044248 2.9517921,27.087908 2.4537762,27.078988 2.2007587,27.073728 1.9753597,27.077198 1.7909424,26.87319 1.5699979,26.628194 1.4719979,25.829943 1.3419259,25.479816 1.2234359,25.160873 0.66305582,24.597819 0.49378369,23.69355 1.6403796,23.182171 1.1263272,23.248098 2.4537762,23.248098 2.0680139,22.694846 2.0154502,22.677028 2.0083238,22.00083 L 2.9883195,21.388779 3.5228628,21.150906 4.6810397,20.513909 5.4828553,20.172691 6.4628508,19.562422 8.6010241,18.991351 9.6549654,18.791788 10.30889,18.099555 11.541012,17.18994 c -0.04544,-0.203126 -0.145218,-0.52207 -0.145218,-0.712724 -8.74e-4,-0.356363 0.498017,-2.1355 0.677089,-2.494536 0.258362,-0.517616 0.724307,-0.85616 0.09176,-1.158177 0.04009,-0.561271 -0.07751,-0.971087 0.534544,-1.158176 C 12.572677,11.498835 12.397169,11.317092 12.31877,11.123765 12.210973,10.855602 12.30273,10.526858 11.973098,10.33175 11.70048,10.169605 10.319577,10.185641 9.9061974,9.6867333 9.7173258,9.4586615 9.673671,9.1904994 9.6727801,8.904519 9.6683035,7.6866513 10.641194,7.4425439 11.255027,6.7627825 L 12.075552,5.6972589 C 11.207809,5.6491488 10.790867,5.3088248 10.445195,4.5390821 10.349871,4.3270465 10.251868,4.1551024 10.250086,3.9154486 c -0.0053,-0.5701795 0.212504,-1.3793363 0.489108,-1.6036302 0.231601,-0.1878022 0.971978,-0.4828709 1.514539,-0.5104893 0.465053,-0.023164 0.685107,0.228072 1.069977,0.281526 0.302909,0.041877 0.486434,-0.077508 0.759943,0.089987 0.523852,0.3207262 0.391998,0.6182876 0.429417,0.8098322 0.0579,0.2948905 0.351908,0.2521271 0.500688,0.4499079 0.07841,0.1033448 0.09443,0.2690537 0.114036,0.3937798 0.07572,0.4730716 0.110472,0.7020339 -0.379526,0.8909057 0.243218,0.5247431 0.207581,0.9773238 0.558598,1.6036301 0.310036,0.5541431 0.750143,0.8187423 1.017416,1.1590682 0.19956,0.2556903 0.195998,0.4017985 0.346559,0.6191789 l 0.495345,0.5452337 c 0.252126,0.2868719 0.816068,1.0370147 1.153721,1.1225417 0.495346,0.126508 1.584923,-0.3456718 2.041067,-0.5621616 0.230745,-0.1095807 0.477524,-0.1434353 0.665504,-0.3278535 0.221838,-0.2182717 0.517617,-0.9007047 0.966633,-1.2151948 0.513161,-0.3599255 0.743906,-0.026729 1.03167,-0.081074 0.236981,-0.045441 0.318052,-0.2868708 0.560379,-0.391107 l 0.703817,-0.098891 1.059285,-0.3750716 c 0.211144,-0.083743 0.290434,-0.1817443 0.472179,-0.2850902 0.251237,-0.1425442 0.381308,-0.1425442 0.67976,-0.3572526 0.483763,-0.3483445 0.765289,-0.7510334 1.34438,-0.9995963 z m -0.890908,3.2963502 -1.247265,0.8338873 c -0.811617,0.3456716 -1.715886,-0.057013 -2.405444,-0.4775252 -0.108692,0.3331986 -0.141656,0.3046899 -0.408927,0.5122709 -0.547016,0.4222889 -0.685997,0.4124889 -1.372886,0.4677249 -0.06682,0.8196337 -0.45169,0.5666157 -0.979997,0.9363417 l -0.623633,0.503363 c -0.31449,0.195107 -1.600956,0.617397 -1.959991,0.589778 -0.360819,-0.02762 -0.818742,-0.279744 -1.15818,-0.425853 l 0.165711,1.692721 -0.105122,0.534544 -0.05078,1.069085 c 0.03653,0.243218 0.20847,0.375072 0.287761,0.623635 0.0597,0.188872 0.01074,0.315381 0.125616,0.534543 l 1.342594,1.60363 0.668182,0.887342 c 0.503362,0.575525 0.749253,0.40358 0.951487,1.250832 0.321618,0.05257 0.88378,0.377743 1.070867,0.650361 0.180856,0.261034 0.0597,0.42318 0.462382,0.775087 l 1.406739,1.253504 c 0.489106,0.355471 0.685996,0.328745 0.979997,0.514053 l 0.648577,0.555034 0.687781,0.328744 c 0.42318,0.250345 1.535919,1.187576 2.020574,0.947924 0.285981,-0.141654 0.130071,-0.522961 0.0579,-0.748361 -0.263709,-0.822306 -0.493564,-0.968414 -1.187579,-1.493157 l -1.069087,-0.684217 -1.425447,-1.099376 c -0.309146,-0.229854 -0.881106,-0.585326 -1.053941,-0.91407 -0.32251,-0.616506 0.117599,-1.473557 0.353688,-2.045519 l 1.262413,-3.029078 0.685105,-1.425449 c -0.62274,0.28598 -0.807158,0.690452 -1.246377,0.683324 -0.408033,-0.0072 -0.918521,-0.594234 -0.229851,-1.172431 0.261035,-0.218272 0.546123,-0.213818 0.852595,-0.321617 l 0.712726,-0.310926 c 0.80003,-0.2744 0.99425,-0.114927 1.558192,-0.927432 0.150561,-0.21649 0.377744,-0.807162 0.334091,-1.0690867 -0.04009,-0.241436 -0.232529,-0.400908 -0.253018,-0.7127253 z"
       sodipodi:nodetypes="cccccccccccccccccccccccccccccccccszcccccccccccccccccccsccccccccccccccccccccccccscccccccccccccccccccccccccccccccccccccccccccccccccccccccccccccc"
       style="stroke-width:0.336721;stroke-linecap:butt;stroke-linejoin:round;stroke-dasharray:none;fill:#000000;fill-opacity:1;stroke:none" />
  </g>
</svg>
